<mxfile host="app.diagrams.net" modified="2024-04-02T19:33:08.657Z" agent="Mozilla/5.0 (Windows NT 10.0; Win64; x64; rv:124.0) Gecko/20100101 Firefox/124.0" etag="lZEMo-dvqvfqVTeOtn2c" version="24.2.1" type="github">
  <diagram name="Page-1" id="gJuD32REYANUAOO8X32h">
    <mxGraphModel dx="1434" dy="746" grid="1" gridSize="10" guides="1" tooltips="1" connect="1" arrows="1" fold="1" page="1" pageScale="1" pageWidth="850" pageHeight="1100" math="0" shadow="0">
      <root>
        <mxCell id="0" />
        <mxCell id="1" parent="0" />
        <mxCell id="Y8_Mu6E-DmHHrcDuBeY3-2" value="" style="rhombus;whiteSpace=wrap;html=1;" parent="1" vertex="1">
          <mxGeometry x="330" y="360" width="80" height="80" as="geometry" />
        </mxCell>
        <mxCell id="fW2glLvARqZ6SqtbHBZz-1" value="" style="ellipse;whiteSpace=wrap;html=1;" vertex="1" parent="1">
          <mxGeometry x="310" y="20" width="120" height="80" as="geometry" />
        </mxCell>
        <mxCell id="fW2glLvARqZ6SqtbHBZz-2" value="" style="ellipse;whiteSpace=wrap;html=1;" vertex="1" parent="1">
          <mxGeometry x="100" y="210" width="120" height="80" as="geometry" />
        </mxCell>
        <mxCell id="fW2glLvARqZ6SqtbHBZz-3" value="" style="ellipse;whiteSpace=wrap;html=1;" vertex="1" parent="1">
          <mxGeometry x="520" y="210" width="120" height="80" as="geometry" />
        </mxCell>
      </root>
    </mxGraphModel>
  </diagram>
</mxfile>
